<?xml version="1.0" encoding="utf-8"?>
<!-- Generator: Adobe Illustrator 16.0.0, SVG Export Plug-In . SVG Version: 6.00 Build 0)  -->
<!DOCTYPE svg PUBLIC "-//W3C//DTD SVG 1.1//EN" "http://www.w3.org/Graphics/SVG/1.1/DTD/svg11.dtd">
<svg version="1.1" id="share" xmlns="http://www.w3.org/2000/svg" xmlns:xlink="http://www.w3.org/1999/xlink" x="0px" y="0px"
	 width="42px" height="42px" viewBox="0 0 42 42" enable-background="new 0 0 42 42" xml:space="preserve">
<g id="Mkcmps.tif">
	<g>
		<path fill="#FFFFFF" d="M4.299,37.701V4.299h33.402v33.402H4.299z M27.256,18.2c-0.065-0.071-0.104-0.109-0.14-0.147
			c-0.634-0.712-1.411-1.19-2.336-1.428c-0.757-0.195-1.524-0.229-2.303-0.159c-0.879,0.075-1.712,0.307-2.491,0.721
			c-2.529,1.346-4.455,4.155-4.075,7.652c0.184,1.685,0.836,3.149,1.995,4.387c1.716,1.834,3.838,2.508,6.298,2.189
			c1.159-0.15,2.16-0.65,3.018-1.441c0.051-0.046,0.103-0.086,0.183-0.155c0,0.481,0,0.923,0,1.362c0,0.236,0,0.236,0.238,0.236
			c1.244,0,2.489,0,3.734,0c0.275,0,0.275,0,0.275-0.275V11.135c0.012-0.122-0.05-0.149-0.161-0.126
			c-1.328,0.277-2.659,0.554-3.989,0.832c-0.246,0.053-0.246,0.057-0.246,0.304V18.2z"/>
		<path fill-rule="evenodd" clip-rule="evenodd" fill="#FFFFFF" d="M24.001,27.512c-2.038,0.018-3.758-1.436-3.738-3.611
			c0.016-2.073,1.738-3.622,3.685-3.586c1.961,0.037,3.469,1.619,3.475,3.69C27.427,25.998,25.831,27.564,24.001,27.512z"/>
	</g>
</g>
</svg>
