<?xml version="1.0" encoding="utf-8"?>
<!-- Generator: Adobe Illustrator 16.0.0, SVG Export Plug-In . SVG Version: 6.00 Build 0)  -->
<!DOCTYPE svg PUBLIC "-//W3C//DTD SVG 1.1//EN" "http://www.w3.org/Graphics/SVG/1.1/DTD/svg11.dtd">
<svg version="1.1" id="share" xmlns="http://www.w3.org/2000/svg" xmlns:xlink="http://www.w3.org/1999/xlink" x="0px" y="0px"
	 width="42px" height="42px" viewBox="26.5 27.5 42 42" enable-background="new 26.5 27.5 42 42" xml:space="preserve">
<g>
	<path fill="#FFFFFF" d="M65.421,45.927H59.89v-5.531c0-0.421-0.343-0.765-0.764-0.765h-1.575c-0.424,0-0.767,0.344-0.767,0.765
		v5.531h-5.531c-0.422,0-0.766,0.344-0.766,0.767v1.575c0,0.423,0.344,0.765,0.766,0.765h5.531v5.533
		c0,0.423,0.343,0.765,0.767,0.765h1.575c0.421,0,0.764-0.342,0.764-0.765v-5.534h5.531c0.421,0,0.765-0.342,0.765-0.765v-1.575
		C66.186,46.27,65.842,45.927,65.421,45.927z"/>
	<path fill="#FFFFFF" d="M46.832,50.776c-1.163-0.824-2.221-2.033-2.239-2.404c0-0.676,0.061-0.999,1.576-2.18
		c1.96-1.535,3.04-3.552,3.04-5.684c0-1.933-0.59-3.65-1.596-4.856h0.78c0.161,0,0.319-0.05,0.448-0.145l2.176-1.577
		c0.271-0.194,0.384-0.539,0.28-0.855c-0.104-0.315-0.396-0.53-0.728-0.53h-9.732c-1.064,0-2.146,0.188-3.208,0.553
		c-3.547,1.222-6.027,4.245-6.027,7.347c0,4.395,3.405,7.727,7.957,7.831c-0.089,0.349-0.135,0.691-0.135,1.028
		c0,0.678,0.172,1.319,0.525,1.938c-0.041,0-0.081,0-0.125,0c-4.338,0-8.254,2.129-9.741,5.298
		c-0.387,0.823-0.584,1.656-0.584,2.479c0,0.8,0.205,1.569,0.608,2.292c0.934,1.673,2.94,2.969,5.653,3.653
		c1.399,0.354,2.904,0.534,4.466,0.534c1.404,0,2.742-0.181,3.979-0.539c3.857-1.119,6.352-3.959,6.352-7.237
		C50.557,54.579,49.546,52.695,46.832,50.776z M34.541,57.976c0-2.288,2.907-4.295,6.22-4.295h0.089
		c0.721,0.01,1.424,0.115,2.087,0.318c0.228,0.157,0.447,0.307,0.658,0.45c1.534,1.046,2.548,1.735,2.83,2.843
		c0.067,0.279,0.1,0.559,0.1,0.829c0,2.849-2.125,4.293-6.317,4.293C37.03,62.414,34.541,60.466,34.541,57.976z M37.556,36.358
		c0.518-0.591,1.196-0.904,1.958-0.904l0.086,0.001c2.151,0.063,4.209,2.461,4.587,5.344c0.213,1.614-0.146,3.132-0.958,4.057
		c-0.519,0.592-1.188,0.905-1.979,0.905c0,0,0,0-0.001,0h-0.035c-2.106-0.065-4.209-2.553-4.585-5.433
		C36.416,38.719,36.754,37.272,37.556,36.358z"/>
</g>
</svg>
