<?xml version="1.0" encoding="utf-8"?>
<!-- Generator: Adobe Illustrator 16.0.0, SVG Export Plug-In . SVG Version: 6.00 Build 0)  -->
<!DOCTYPE svg PUBLIC "-//W3C//DTD SVG 1.1//EN" "http://www.w3.org/Graphics/SVG/1.1/DTD/svg11.dtd">
<svg version="1.1" id="share" xmlns="http://www.w3.org/2000/svg" xmlns:xlink="http://www.w3.org/1999/xlink" x="0px" y="0px"
	 width="42px" height="42px" viewBox="26.5 27.5 42 42" enable-background="new 26.5 27.5 42 42" xml:space="preserve">
<path fill="#FFFFFF" d="M57.736,30.5H36.264c-3.73,0-6.764,3.034-6.764,6.764v7.145v14.328c0,3.73,3.034,6.764,6.764,6.764h21.473
	c3.729,0,6.763-3.033,6.763-6.764V44.408v-7.145C64.5,33.533,61.467,30.5,57.736,30.5z M59.676,34.533l0.774-0.002v0.77v5.163
	l-5.913,0.019l-0.02-5.931L59.676,34.533z M42.004,44.408c1.122-1.551,2.94-2.568,4.996-2.568s3.875,1.017,4.994,2.568
	c0.73,1.012,1.167,2.25,1.167,3.592c0,3.397-2.766,6.16-6.161,6.16c-3.397,0-6.161-2.763-6.161-6.16
	C40.84,46.658,41.276,45.42,42.004,44.408z M61.09,58.735c0,1.851-1.505,3.354-3.354,3.354H36.264c-1.85,0-3.354-1.503-3.354-3.354
	V44.408h5.225C37.683,45.517,37.43,46.729,37.43,48c0,5.276,4.292,9.571,9.57,9.571s9.57-4.295,9.57-9.571
	c0-1.27-0.255-2.482-0.706-3.592h5.226V58.735z"/>
</svg>
