<?xml version="1.0" encoding="utf-8"?>
<!-- Generator: Adobe Illustrator 16.0.0, SVG Export Plug-In . SVG Version: 6.00 Build 0)  -->
<!DOCTYPE svg PUBLIC "-//W3C//DTD SVG 1.1//EN" "http://www.w3.org/Graphics/SVG/1.1/DTD/svg11.dtd">
<svg version="1.1" id="share" xmlns="http://www.w3.org/2000/svg" xmlns:xlink="http://www.w3.org/1999/xlink" x="0px" y="0px"
	 width="42px" height="42px" viewBox="26.5 27.5 42 42" enable-background="new 26.5 27.5 42 42" xml:space="preserve">
<g>
	<path fill="#FFFFFF" d="M62.633,31.5v5.356h5.795v20.702c0,4.919-2.078,6.941-5.96,6.941H31.094c-2.352,0-4.594-2.297-4.594-4.864
		V31.5H62.633z M62.633,57.559c0,2.513,0.547,3.717,1.476,3.717c0.766,0,1.366-1.204,1.366-3.717V39.808h-2.842V57.559z
		 M29.454,59.636c0,0.766,0.653,1.913,1.64,1.913h29.407c-0.492-0.983-0.819-2.24-0.819-3.99V34.451H29.454V59.636z M48.038,43.854
		h6.941v0.983h-6.941V43.854z M48.038,47.078h6.941v0.983h-6.941V47.078z M48.038,50.193h6.941v0.984h-6.941V50.193z M48.038,53.2
		h6.941v0.983h-6.941V53.2z M48.038,56.315h6.941v0.983h-6.941V56.315z M53.942,40.682H35.738v-1.912h18.204V40.682z M45.5,55.5h-12
		v-12h12V55.5z"/>
</g>
</svg>
