<?xml version="1.0" encoding="utf-8"?>
<!-- Generator: Adobe Illustrator 16.0.0, SVG Export Plug-In . SVG Version: 6.00 Build 0)  -->
<!DOCTYPE svg PUBLIC "-//W3C//DTD SVG 1.1//EN" "http://www.w3.org/Graphics/SVG/1.1/DTD/svg11.dtd">
<svg version="1.1" id="share" xmlns="http://www.w3.org/2000/svg" xmlns:xlink="http://www.w3.org/1999/xlink" x="0px" y="0px"
	 width="42px" height="42px" viewBox="26.5 27.5 42 42" enable-background="new 26.5 27.5 42 42" xml:space="preserve">
<g>
	<path fill="#FFFFFF" d="M30.88,53.509c-2.943-2.945-4.38-6.846-4.38-10.814c0-8.214,6.978-15.195,15.191-15.195
		c8.281,0,15.264,6.844,15.264,15.125c0,3.558-1.23,7.119-3.627,9.992l6.91,2.806l7.055,7.119c0.547,0.684,0.819,1.574,0.819,2.464
		c0,2.19-1.85,4.174-4.106,4.174c-0.893,0-1.711-0.272-2.464-0.819l-7.122-7.119l-2.803-6.844c-2.876,2.396-6.364,3.628-9.926,3.628
		C37.791,58.025,33.89,56.519,30.88,53.509z M48.334,49.401c1.845-1.847,2.731-4.244,2.731-6.707c0-4.996-4.235-9.31-9.374-9.31
		c-4.993,0-9.307,4.244-9.307,9.31c0,5.199,4.247,9.443,9.307,9.443C44.088,52.138,46.484,51.179,48.334,49.401z"/>
</g>
</svg>
