<?xml version="1.0" encoding="utf-8"?>
<!-- Generator: Adobe Illustrator 16.0.0, SVG Export Plug-In . SVG Version: 6.00 Build 0)  -->
<!DOCTYPE svg PUBLIC "-//W3C//DTD SVG 1.1//EN" "http://www.w3.org/Graphics/SVG/1.1/DTD/svg11.dtd">
<svg version="1.1" id="share" xmlns="http://www.w3.org/2000/svg" xmlns:xlink="http://www.w3.org/1999/xlink" x="0px" y="0px"
	 width="42px" height="42px" viewBox="26.5 27.5 42 42" enable-background="new 26.5 27.5 42 42" xml:space="preserve">
<path fill="#FFFFFF" d="M60.158,52.72c-2.538,0-4.811,1.127-6.358,2.901l-10.708-5.354c0.122-0.569,0.188-1.161,0.188-1.767
	c0-0.606-0.067-1.197-0.188-1.767L53.8,41.379c1.548,1.775,3.82,2.901,6.358,2.901c4.66,0,8.438-3.779,8.438-8.439
	s-3.778-8.438-8.438-8.438s-8.438,3.778-8.438,8.438c0,0.606,0.066,1.197,0.188,1.767l-10.709,5.354
	c-1.547-1.775-3.818-2.901-6.357-2.901c-4.66,0-8.439,3.779-8.439,8.439s3.779,8.438,8.439,8.438c2.539,0,4.81-1.127,6.357-2.901
	l10.709,5.354c-0.122,0.569-0.188,1.161-0.188,1.767c0,4.66,3.778,8.438,8.438,8.438s8.438-3.778,8.438-8.438
	S64.818,52.72,60.158,52.72z M60.158,31.623c2.33,0,4.22,1.889,4.22,4.219s-1.89,4.219-4.22,4.219s-4.22-1.889-4.22-4.219
	S57.828,31.623,60.158,31.623z M34.842,52.72c-2.33,0-4.219-1.89-4.219-4.22s1.889-4.219,4.219-4.219s4.219,1.889,4.219,4.219
	S37.172,52.72,34.842,52.72z M60.158,65.378c-2.33,0-4.22-1.89-4.22-4.22s1.89-4.22,4.22-4.22s4.22,1.89,4.22,4.22
	S62.488,65.378,60.158,65.378z"/>
</svg>
