<?xml version="1.0" encoding="utf-8"?>
<!-- Generator: Adobe Illustrator 16.0.0, SVG Export Plug-In . SVG Version: 6.00 Build 0)  -->
<!DOCTYPE svg PUBLIC "-//W3C//DTD SVG 1.1//EN" "http://www.w3.org/Graphics/SVG/1.1/DTD/svg11.dtd">
<svg version="1.1" id="share" xmlns="http://www.w3.org/2000/svg" xmlns:xlink="http://www.w3.org/1999/xlink" x="0px" y="0px"
	 width="42px" height="42px" viewBox="26.5 27.5 42 42" enable-background="new 26.5 27.5 42 42" xml:space="preserve">
<path fill="#FFFFFF" d="M67.235,36.801c-1.422,0.631-2.951,1.058-4.556,1.249c1.64-0.981,2.896-2.535,3.487-4.388
	c-1.531,0.909-3.229,1.569-5.036,1.926c-1.447-1.542-3.509-2.505-5.79-2.505c-4.379,0-7.931,3.551-7.931,7.932
	c0,0.621,0.07,1.226,0.206,1.807c-6.592-0.331-12.437-3.488-16.349-8.288c-0.684,1.171-1.074,2.534-1.074,3.989
	c0,2.752,1.399,5.18,3.528,6.602c-1.299-0.042-2.523-0.398-3.592-0.993c0,0.034,0,0.067,0,0.101c0,3.843,2.733,7.047,6.362,7.778
	c-0.665,0.18-1.366,0.276-2.09,0.276c-0.511,0-1.009-0.049-1.492-0.142c1.009,3.15,3.938,5.445,7.409,5.508
	c-2.714,2.127-6.134,3.396-9.851,3.396c-0.64,0-1.271-0.038-1.892-0.111c3.511,2.252,7.68,3.563,12.159,3.563
	c14.59,0,22.568-12.087,22.568-22.567c0-0.344-0.007-0.687-0.021-1.028C64.827,39.789,66.173,38.391,67.235,36.801z"/>
</svg>
