<?xml version="1.0" encoding="utf-8"?>
<!-- Generator: Adobe Illustrator 16.0.0, SVG Export Plug-In . SVG Version: 6.00 Build 0)  -->
<!DOCTYPE svg PUBLIC "-//W3C//DTD SVG 1.1//EN" "http://www.w3.org/Graphics/SVG/1.1/DTD/svg11.dtd">
<svg version="1.1" id="share" xmlns="http://www.w3.org/2000/svg" xmlns:xlink="http://www.w3.org/1999/xlink" x="0px" y="0px"
	 width="232px" height="232px" viewBox="0 0 232 232" enable-background="new 0 0 232 232" xml:space="preserve">
<g>
	<path opacity="0.6" fill="#FFFFFF" d="M115.593,0.5c0.002,0,0.003,0,0.005,0v7.992c-0.002,0-0.003,0-0.005,0
		c-29.776,0-56.778,12.112-76.335,31.669l-5.688-5.687C54.562,13.483,83.562,0.5,115.593,0.5z"/>
	<path opacity="0.5" fill="#FFFFFF" d="M7.585,116.502h-7.992c0-32.034,12.984-61.035,33.978-82.027l5.688,5.687
		C19.699,59.72,7.585,86.723,7.585,116.502z"/>
	<path opacity="0.4" fill="#FFFFFF" d="M-0.407,116.502h7.992c0,29.778,12.115,56.781,31.675,76.339l-5.688,5.688
		C12.578,177.537-0.407,148.536-0.407,116.502z"/>
	<path opacity="0.3" fill="#FFFFFF" d="M33.572,198.528l5.688-5.688c19.557,19.555,46.558,31.667,76.333,31.667
		c0.002,0,0.004,0,0.006,0v7.992c-0.002,0-0.004,0-0.006,0C83.562,232.5,54.563,219.518,33.572,198.528z"/>
	<path opacity="0.1" fill="#FFFFFF" d="M223.601,116.5c0-59.554-48.45-108.005-108.003-108.008V0.5
		c64.061,0.003,115.995,51.938,115.995,116c0,32.032-12.983,61.031-33.975,82.023l-5.688-5.688
		C211.487,173.278,223.601,146.276,223.601,116.5z"/>
	<path opacity="0.2" fill="#FFFFFF" d="M197.618,198.523c-20.991,20.991-49.99,33.975-82.02,33.977v-7.992
		c29.775-0.002,56.775-12.115,76.332-31.672L197.618,198.523z"/>
</g>
</svg>
