<?xml version="1.0" encoding="utf-8"?>
<!-- Generator: Adobe Illustrator 16.0.0, SVG Export Plug-In . SVG Version: 6.00 Build 0)  -->
<!DOCTYPE svg PUBLIC "-//W3C//DTD SVG 1.1//EN" "http://www.w3.org/Graphics/SVG/1.1/DTD/svg11.dtd">
<svg version="1.1" id="Layer_1" xmlns="http://www.w3.org/2000/svg" xmlns:xlink="http://www.w3.org/1999/xlink" x="0px" y="0px"
	 width="75.77px" height="39.984px" viewBox="0 0 75.77 39.984" enable-background="new 0 0 75.77 39.984" xml:space="preserve">
<g>
	<path fill="#FFFFFF" d="M48.582,39.932c-0.039,0-0.07-0.029-0.075-0.068L46.125,18.04c-0.002-0.021,0.005-0.044,0.02-0.06
		c0.015-0.018,0.035-0.025,0.058-0.025l4.263,0.094c0.039,0,0.071,0.031,0.074,0.07l1.67,21.614c0.001,0.021-0.005,0.042-0.02,0.057
		c-0.014,0.017-0.033,0.025-0.055,0.025C52.134,39.816,48.583,39.932,48.582,39.932z"/>
	<path fill="#FFFFFF" d="M29.146,39.937c-0.021,0-0.04-0.01-0.055-0.024c-0.015-0.015-0.022-0.035-0.021-0.055l0.63-17.756
		c0.001-0.027-0.02-0.051-0.047-0.054l0,0c-0.029,0-0.051,0.02-0.055,0.044L27.86,35.774c-0.004,0.037-0.035,0.064-0.073,0.066
		c0,0-1.711,0.066-1.712,0.066c-0.039,0-0.072-0.03-0.076-0.07l-0.709-7.755c-0.002-0.025-0.024-0.046-0.05-0.046
		c-0.029,0.001-0.051,0.023-0.051,0.05l-0.246,11.697c0,0.021-0.009,0.04-0.024,0.054c-0.014,0.014-0.033,0.021-0.053,0.021
		l-2.204-0.067c-0.021,0-0.04-0.009-0.054-0.023c-0.014-0.016-0.021-0.035-0.021-0.056L23.298,20.3
		c0.001-0.037,0.031-0.068,0.068-0.072l1.661-0.176c0.002,0,0.005,0,0.008,0c0.036,0,0.068,0.026,0.075,0.062l1.619,8.816
		c0.004,0.023,0.025,0.042,0.05,0.042c0.027-0.001,0.049-0.021,0.051-0.047l0.835-9.025c0.003-0.036,0.032-0.065,0.068-0.069
		l7.21-0.768c0.002-0.001,0.005-0.001,0.008-0.001c0.019,0,0.037,0.007,0.051,0.02c0.016,0.015,0.025,0.035,0.026,0.058
		l0.048,20.723c0,0.021-0.008,0.04-0.023,0.054c-0.014,0.016-0.034,0.023-0.054,0.023h-5.853V39.937z"/>
	<path fill="#FFFFFF" d="M52.984,39.862c-0.041,0-0.073-0.031-0.076-0.072l-1.327-21.577c-0.002-0.04,0.026-0.073,0.065-0.08
		l12.643-1.925c0.003,0,0.007-0.001,0.011-0.001c0.019,0,0.034,0.006,0.048,0.018c0.016,0.013,0.026,0.032,0.028,0.054l0.14,1.967
		l-0.145,3.304c-0.001,0.036-0.027,0.065-0.062,0.072L53.75,23.64c-0.023,0.005-0.042,0.025-0.042,0.051v0.894
		c0,0.016,0.007,0.03,0.019,0.04c0.01,0.007,0.021,0.011,0.032,0.011c0.005,0,0.007,0,0.011-0.001l4.916-1.012
		c0.004-0.001,0.01-0.001,0.016-0.001c0.017,0,0.033,0.006,0.048,0.018c0.019,0.014,0.028,0.035,0.028,0.06v1.759
		c0,0.034-0.023,0.064-0.057,0.073l-4.453,1.242c-0.023,0.006-0.039,0.027-0.037,0.052l0.148,2.137
		c0.001,0.016,0.008,0.028,0.02,0.036c0.009,0.008,0.021,0.012,0.031,0.012l9.256-1.395c0.004,0,0.008,0,0.012,0
		c0.018,0,0.035,0.006,0.049,0.018c0.018,0.015,0.027,0.035,0.027,0.058l0.291,12.097c0,0.021-0.006,0.041-0.021,0.055
		c-0.014,0.016-0.034,0.023-0.055,0.023H52.984V39.862z"/>
	<path fill="#FFFFFF" d="M17.117,39.948c-0.042-0.001-0.075-0.035-0.075-0.077V29.62c0-0.029,0.017-0.055,0.042-0.068l1.496-0.747
		c0.018-0.01,0.028-0.026,0.028-0.047V21.23c0-0.028-0.022-0.051-0.051-0.051h-1.438c-0.042,0-0.077-0.034-0.077-0.076v-1.271
		c0-0.021,0.009-0.041,0.024-0.056c0.015-0.014,0.033-0.021,0.053-0.021c0.002,0,5.361,0.374,5.361,0.374
		c0.041,0.002,0.073,0.038,0.071,0.079l-0.737,19.728c-0.001,0.042-0.035,0.073-0.076,0.073L17.117,39.948z"/>
	<path fill="#FFFFFF" d="M10.822,39.864c-0.021,0-0.042-0.009-0.056-0.026c-0.014-0.017-0.021-0.038-0.019-0.059l2.28-20.235
		c0.004-0.039,0.037-0.066,0.076-0.066c0.001,0,3.367,0.233,3.367,0.233c0.041,0.003,0.072,0.036,0.072,0.076v1.316
		c0,0.042-0.034,0.076-0.077,0.076h-0.667c-0.028,0-0.05,0.021-0.051,0.049l-0.373,9.093c-0.001,0.018,0.008,0.035,0.023,0.045
		c0.008,0.005,0.018,0.008,0.028,0.008c0.008,0,0.015-0.001,0.022-0.005l0.983-0.492c0.011-0.005,0.022-0.008,0.034-0.008
		c0.014,0,0.028,0.004,0.041,0.011c0.022,0.016,0.036,0.039,0.036,0.065v9.917c0,0.021-0.008,0.041-0.023,0.054
		c-0.014,0.016-0.034,0.022-0.054,0.022C16.466,39.939,10.822,39.864,10.822,39.864z"/>
	<path fill="#FFFFFF" d="M38.956,39.956c-0.042,0-0.076-0.035-0.076-0.077V29.473c0-0.021,0.009-0.042,0.025-0.058
		c0.014-0.013,0.032-0.02,0.051-0.02c0.003,0,0.006,0,0.009,0.001l2.84,0.331c0.017,0,0.028-0.004,0.037-0.013
		c0.011-0.009,0.017-0.021,0.018-0.035l0.125-2.188c0.001-0.026-0.017-0.048-0.042-0.053l-3-0.548
		c-0.037-0.007-0.063-0.038-0.063-0.075v-1.672c0-0.035,0.023-0.064,0.056-0.074l1.521-0.415c0.023-0.006,0.039-0.027,0.038-0.051
		l-0.148-3.528c-0.001-0.027-0.023-0.048-0.051-0.048c-0.007,0-1.338,0.017-1.339,0.017c-0.02,0-0.039-0.008-0.054-0.021
		c-0.015-0.015-0.022-0.034-0.022-0.055v-2.153c0-0.038,0.029-0.07,0.066-0.075l6.489-0.872c0.004,0,0.006,0,0.01,0
		c0.018,0,0.035,0.005,0.049,0.017c0.018,0.014,0.027,0.033,0.027,0.054l0.576,6.948c0.002,0.04-0.027,0.076-0.068,0.082
		l-6.188,0.682c-0.027,0.003-0.046,0.025-0.045,0.052c0,0.026,0.022,0.048,0.048,0.049l6.252,0.294
		c0.036,0.002,0.067,0.03,0.071,0.067l1.708,13.81c0.002,0.021-0.004,0.043-0.02,0.061c-0.015,0.017-0.034,0.025-0.057,0.025
		C47.801,40.01,38.956,39.956,38.956,39.956z"/>
	<path fill="#FFFFFF" d="M35.998,39.937c-0.042,0-0.075-0.033-0.076-0.075l-0.294-20.606c-0.001-0.039,0.027-0.07,0.066-0.076
		l2.6-0.35c0.004,0,0.007,0,0.01,0c0.019,0,0.037,0.006,0.05,0.02c0.017,0.015,0.026,0.035,0.026,0.058v20.97
		c0,0.021-0.008,0.04-0.023,0.055c-0.014,0.014-0.034,0.021-0.054,0.021L35.998,39.937z"/>
	<path fill="#FFFFFF" d="M35.676,18.134c-0.019,0-0.037-0.007-0.05-0.019C35.609,18.1,35.6,18.08,35.6,18.058l-0.083-8.381
		c0-0.025-0.02-0.047-0.046-0.05L34.17,9.497c-0.036-0.003-0.064-0.031-0.068-0.066l-0.097-0.853
		c-0.005-0.04,0.021-0.076,0.06-0.084l1.184-0.244c0.022-0.004,0.04-0.023,0.041-0.047l0.261-4.882c0-0.016-0.005-0.03-0.017-0.04
		c-0.009-0.009-0.021-0.014-0.034-0.014l-1.982,0.312C33.513,3.58,33.509,3.58,33.505,3.58c-0.017,0-0.033-0.005-0.046-0.015
		c-0.017-0.014-0.027-0.032-0.03-0.052l-0.365-3.211c-0.002-0.021,0.005-0.043,0.019-0.059c0.015-0.016,0.036-0.026,0.057-0.026
		l5.841,0.021c0.021,0,0.041,0.008,0.055,0.023c0.015,0.015,0.022,0.034,0.021,0.056l-0.358,8.09
		c-0.002,0.038-0.033,0.07-0.071,0.072l-4.03,0.284c-0.027,0.002-0.048,0.024-0.047,0.051c0,0.026,0.021,0.049,0.048,0.05
		l4.106,0.198c0.021,0.001,0.041,0.011,0.054,0.025c0.014,0.016,0.021,0.036,0.02,0.057l-0.667,8.626
		c-0.003,0.036-0.03,0.064-0.067,0.069l-2.36,0.292C35.682,18.134,35.679,18.134,35.676,18.134z"/>
	<path fill="#FFFFFF" d="M0.077,39.86c-0.021,0-0.04-0.008-0.054-0.022C0.008,39.824,0,39.804,0,39.784V29.31
		c0-0.027,0.014-0.052,0.037-0.065l8.11-4.938c0.02-0.013,0.029-0.036,0.022-0.059c-0.006-0.021-0.026-0.037-0.049-0.037
		c-0.012,0-8.043,0.094-8.043,0.094c-0.021,0-0.04-0.009-0.054-0.022C0.008,24.268,0,24.248,0,24.228v-3.817
		c0-0.042,0.034-0.076,0.076-0.077l12.23-0.083c0.023,0,0.045,0.012,0.06,0.029c0.015,0.019,0.02,0.043,0.014,0.066l-0.943,3.771
		c-0.008,0.033-0.038,0.058-0.073,0.058l-0.035,0.001c-0.01,0-0.02,0.004-0.028,0.009L4.96,28.412
		c-0.02,0.013-0.028,0.039-0.019,0.062c0.007,0.019,0.026,0.031,0.047,0.031l6.573-1.107c0.004-0.001,0.008-0.001,0.012-0.001
		c0.02,0,0.039,0.007,0.054,0.021c0.018,0.018,0.025,0.042,0.022,0.066L9.901,39.722c-0.006,0.037-0.038,0.064-0.075,0.065
		L0.077,39.86z"/>
	<path fill="#FFFFFF" d="M0.076,19.641C0.034,19.64,0,19.605,0,19.564V0.24c0-0.042,0.034-0.076,0.077-0.076h5.154
		c0.021,0,0.041,0.009,0.055,0.023C5.3,0.202,5.308,0.223,5.308,0.243L4.776,16.485c-0.001,0.025,0.019,0.049,0.046,0.052
		c0,0,0,0,0.001,0c0.029,0,0.05-0.018,0.054-0.042l1.588-9.67C6.471,6.788,6.503,6.76,6.54,6.76h1.452
		c0.037,0,0.068,0.026,0.075,0.062l0.812,4.104c0.004,0.024,0.026,0.041,0.05,0.041c0.032-0.002,0.051-0.023,0.051-0.051
		L8.894,0.291c0-0.021,0.008-0.04,0.022-0.055C8.931,0.222,8.95,0.214,8.971,0.214h1.532c0.021,0,0.04,0.009,0.054,0.022
		c0.015,0.014,0.022,0.034,0.022,0.055L10.467,19.51c0,0.042-0.035,0.076-0.077,0.076H7.897c-0.042,0-0.075-0.033-0.077-0.073
		l-0.273-9.371c-0.001-0.025-0.021-0.048-0.047-0.05l0,0c-0.028,0-0.049,0.018-0.054,0.041l-1.934,9.534
		c-0.007,0.035-0.038,0.062-0.075,0.062L0.076,19.641z"/>
	<path fill="#FFFFFF" d="M11.103,18.705c-0.04-0.003-0.071-0.037-0.071-0.077l0.146-18.339c0-0.042,0.034-0.076,0.076-0.076
		l9.977-0.049c0.021,0,0.041,0.008,0.055,0.024c0.014,0.015,0.022,0.035,0.021,0.056L21.22,2.412l-0.375,3.48
		c-0.004,0.037-0.034,0.064-0.071,0.067l-7.09,0.48c-0.024,0.001-0.044,0.02-0.047,0.044L13.53,7.231
		c-0.002,0.015,0.002,0.028,0.012,0.041c0.01,0.011,0.023,0.018,0.038,0.018h3.29c0.021,0,0.04,0.008,0.055,0.023
		c0.014,0.014,0.022,0.034,0.021,0.055l-0.03,1.213c-0.001,0.04-0.032,0.072-0.071,0.075l-3.161,0.206
		c-0.025,0.002-0.045,0.021-0.047,0.046l-0.25,2.6c-0.001,0.016,0.004,0.029,0.014,0.04c0.009,0.011,0.022,0.017,0.037,0.017
		c0.023-0.001,6.547-0.232,6.547-0.232c0.021,0,0.042,0.009,0.056,0.024c0.015,0.016,0.022,0.038,0.021,0.059l-0.644,7.854
		c-0.003,0.04-0.037,0.069-0.077,0.069C19.34,19.339,11.103,18.705,11.103,18.705z"/>
	<path fill="#FFFFFF" d="M23.332,19.71c-0.018,0-0.035-0.007-0.049-0.018c-0.018-0.016-0.028-0.037-0.028-0.061l0.393-19.393
		c0.001-0.042,0.035-0.075,0.077-0.075h4.117c0.036,0,0.067,0.024,0.075,0.061l4.152,18.25c0.005,0.021,0,0.043-0.011,0.061
		c-0.012,0.018-0.031,0.029-0.052,0.032l-4.266,0.607c-0.004,0.001-0.007,0.001-0.011,0.001c-0.037,0-0.069-0.025-0.076-0.062
		l-1.061-6.236c-0.004-0.024-0.025-0.042-0.05-0.042l-1.167,0.131c-0.003,0-0.006,0-0.008,0c-0.019,0-0.037-0.006-0.051-0.02
		c-0.017-0.014-0.025-0.035-0.025-0.057v-0.844c0-0.038,0.027-0.068,0.064-0.074l1.003-0.167c0.013-0.003,0.025-0.011,0.033-0.021
		c0.008-0.011,0.011-0.024,0.009-0.038L25.078,3.98c-0.004-0.025-0.025-0.043-0.05-0.043c-0.031,0.003-0.051,0.023-0.051,0.051
		L24.866,19.35c0,0.035-0.025,0.066-0.061,0.073l-1.458,0.285C23.342,19.71,23.337,19.71,23.332,19.71z"/>
	<path fill="#FFFFFF" d="M32.893,18.537c-0.035,0-0.065-0.022-0.074-0.059L28.358,0.297c-0.006-0.022,0-0.047,0.014-0.064
		c0.015-0.02,0.037-0.029,0.06-0.029l4.051,0.014c0.039,0,0.071,0.03,0.076,0.068l1.981,17.428l0.058,0.548
		c0.004,0.042-0.026,0.079-0.067,0.083l-1.628,0.194C32.899,18.537,32.896,18.537,32.893,18.537z"/>
	<path fill="#FFFFFF" d="M38.973,18.103c-0.019,0-0.037-0.007-0.051-0.021c-0.017-0.015-0.025-0.037-0.025-0.06l0.797-17.786
		c0.001-0.041,0.035-0.073,0.076-0.073h9.812c0.021,0,0.044,0.01,0.059,0.027c0.016,0.017,0.021,0.04,0.018,0.062l-0.865,4.842
		c-0.006,0.034-0.034,0.061-0.068,0.063L41.97,5.772c-0.027,0.002-0.048,0.025-0.046,0.053l0.072,1.354
		c0.001,0.015,0.007,0.026,0.019,0.036c0.009,0.008,0.021,0.012,0.032,0.012l4.594-0.658c0.004,0,0.006,0,0.01,0
		c0.021,0,0.039,0.007,0.055,0.021c0.018,0.018,0.025,0.042,0.021,0.065l-0.166,1.158c-0.004,0.034-0.031,0.06-0.064,0.063
		L42.04,8.48c-0.025,0.003-0.043,0.023-0.044,0.049l-0.072,2.493c0,0.015,0.006,0.028,0.017,0.039
		c0.009,0.009,0.021,0.014,0.034,0.014l5.828-0.764c0.004-0.001,0.008-0.001,0.01-0.001c0.021,0,0.039,0.008,0.054,0.021
		c0.017,0.017,0.024,0.039,0.022,0.062l-0.668,6.5c-0.004,0.035-0.031,0.062-0.066,0.067l-8.169,1.141
		C38.98,18.103,38.977,18.103,38.973,18.103z"/>
	<path fill="#FFFFFF" d="M51.355,17.443c-0.02,0-0.039-0.007-0.053-0.021c-0.016-0.015-0.023-0.034-0.023-0.057l0.326-17.126
		c0.002-0.042,0.035-0.075,0.076-0.075h2.244c0.037,0,0.068,0.026,0.075,0.062l2.392,12.129c0.004,0.023,0.026,0.041,0.051,0.041
		c0.029-0.002,0.05-0.023,0.051-0.05L56.74,0.239c0.001-0.042,0.035-0.075,0.076-0.075h3.418c0.021,0,0.041,0.009,0.056,0.023
		s0.021,0.036,0.021,0.057l-0.734,15.917c-0.001,0.035-0.026,0.064-0.061,0.071l-3.205,0.695c-0.006,0.002-0.012,0.003-0.017,0.003
		c-0.015,0-0.03-0.005-0.042-0.014c-0.018-0.011-0.029-0.028-0.033-0.049l-1.439-7.455c-0.004-0.023-0.026-0.041-0.051-0.041
		c-0.03,0.003-0.051,0.024-0.051,0.051l0.023,7.711c0,0.04-0.031,0.074-0.071,0.076C54.631,17.212,51.357,17.443,51.355,17.443z"/>
	<path fill="#FFFFFF" d="M60.354,16.042c-0.019,0-0.037-0.007-0.052-0.02c-0.017-0.017-0.026-0.038-0.024-0.061l0.707-15.726
		c0.002-0.041,0.037-0.073,0.076-0.073h2.822c0.042,0,0.077,0.034,0.077,0.076v1.52c0,0.042-0.034,0.077-0.077,0.077h-0.726
		c-0.027,0-0.05,0.021-0.052,0.049l-0.26,5.629c0,0.018,0.008,0.034,0.022,0.044c0.009,0.006,0.019,0.009,0.028,0.009
		c0.008,0,0.015-0.001,0.021-0.004l0.936-0.416c0.01-0.004,0.021-0.006,0.03-0.006c0.015,0,0.029,0.004,0.042,0.012
		c0.022,0.014,0.035,0.039,0.035,0.063v8.271c0,0.038-0.029,0.07-0.066,0.076l-3.531,0.479
		C60.359,16.042,60.355,16.042,60.354,16.042z"/>
	<path fill="#FFFFFF" d="M64.484,15.486c-0.02,0-0.037-0.007-0.051-0.021c-0.018-0.015-0.026-0.034-0.026-0.057V6.951
		c0-0.03,0.018-0.058,0.045-0.07l0.644-0.286c0.018-0.008,0.029-0.026,0.029-0.047V1.888c0-0.028-0.023-0.052-0.051-0.052h-0.592
		c-0.041,0-0.076-0.034-0.076-0.077V0.24c0-0.042,0.033-0.076,0.076-0.076h3.425c0.042,0,0.075,0.033,0.075,0.075l0.332,14.74
		c0,0.04-0.028,0.072-0.068,0.077l-3.754,0.429C64.49,15.485,64.486,15.486,64.484,15.486z"/>
	<path fill="#FFFFFF" d="M70.604,15.944c-0.041-0.002-0.071-0.035-0.071-0.077V5.025c0-0.023-0.017-0.043-0.038-0.049l-1.795-0.488
		c-0.033-0.009-0.057-0.04-0.057-0.074V0.315c0-0.042,0.033-0.077,0.076-0.077h6.975c0.041,0,0.076,0.034,0.076,0.077v5.996
		c0,0.023-0.011,0.046-0.029,0.061c-0.014,0.011-0.03,0.017-0.047,0.017c-0.006,0-0.014,0-0.02-0.003L73.268,5.73
		c-0.004-0.001-0.009-0.001-0.013-0.001c-0.012,0-0.022,0.003-0.03,0.01c-0.014,0.01-0.021,0.025-0.021,0.041l0.089,10.222
		c0,0.021-0.008,0.042-0.023,0.058c-0.014,0.013-0.033,0.021-0.053,0.021C73.216,16.08,70.604,15.944,70.604,15.944z"/>
	<path fill="#FFFFFF" d="M65.359,39.65l-0.448-0.009c-0.041-0.001-0.073-0.033-0.075-0.074l-0.51-12.244
		c-0.001-0.023,0.009-0.045,0.025-0.061c0.015-0.014,0.032-0.02,0.051-0.02c0.005,0,0.009,0,0.013,0.001l6.104,1.03c0,0,0,0,0.002,0
		c0.026,0,0.043-0.011,0.052-0.028c0.01-0.021,0.006-0.044-0.011-0.06l-5.451-4.998c-0.004-0.002-0.006-0.004-0.01-0.007
		c-0.023-0.014-0.039-0.038-0.039-0.064l-0.119-6.985c0-0.021,0.009-0.042,0.024-0.058c0.015-0.013,0.033-0.02,0.052-0.02
		c0.002,0,0.004,0,0.008,0l10.674,1.175c0.039,0.004,0.068,0.037,0.068,0.076v7.381c0,0.021-0.011,0.043-0.027,0.058
		c-0.014,0.012-0.032,0.019-0.051,0.019c-0.004,0-0.006,0-0.01,0l-5.459-0.817c-0.002,0-0.002,0-0.002,0
		c-0.027,0-0.044,0.012-0.053,0.029c-0.009,0.021-0.004,0.045,0.014,0.06l5.561,4.799c0.017,0.016,0.027,0.036,0.027,0.059v10.886
		c0,0.021-0.008,0.04-0.023,0.055c-0.014,0.015-0.033,0.021-0.053,0.021l-1.616-0.031L65.359,39.65z"/>
</g>
</svg>
