<?xml version="1.0" encoding="utf-8"?>
<!-- Generator: Adobe Illustrator 16.0.0, SVG Export Plug-In . SVG Version: 6.00 Build 0)  -->
<!DOCTYPE svg PUBLIC "-//W3C//DTD SVG 1.1//EN" "http://www.w3.org/Graphics/SVG/1.1/DTD/svg11.dtd">
<svg version="1.1" id="share" xmlns="http://www.w3.org/2000/svg" xmlns:xlink="http://www.w3.org/1999/xlink" x="0px" y="0px"
	 width="670px" height="48px" viewBox="-769 211.5 670 48" enable-background="new -769 211.5 670 48" xml:space="preserve">
<g>
	<g>
		<path fill="#FFFFFF" d="M-245.102,230.169h-3.979v-9.764c0-4.205,3.424-7.629,7.629-7.629h17.275v3.979h-17.275
			c-2.014,0-3.65,1.638-3.65,3.649V230.169z"/>
	</g>
	<g>
		<path fill="#FFFFFF" d="M-182.342,230.169h-3.738v-9.764c0-2.014-1.637-3.65-3.648-3.65h-17.516v-3.979h17.273
			c4.205,0,7.629,3.424,7.629,7.629V230.169z"/>
	</g>
	<g>
		<path fill="#FFFFFF" d="M-224.172,258.776h-17.279c-4.205,0-7.629-3.422-7.629-7.629v-9.762h3.979v9.762
			c0,2.014,1.639,3.65,3.65,3.65h17.279V258.776z"/>
	</g>
	<g>
		<path fill="#FFFFFF" d="M-189.971,258.776h-17.273v-3.979h17.516c2.012,0,3.648-1.639,3.648-3.65v-9.762h3.738v9.762
			C-182.342,255.354-185.766,258.776-189.971,258.776z"/>
	</g>
	<g>
		<g>
			<path fill="#FFFFFF" d="M-217.525,227.53v3.27h-7.732v3.605h7.352v3.27h-7.352v6.541h-3.725V227.53H-217.525z"/>
		</g>
		<g>
			<path fill="#FFFFFF" d="M-209.588,230.86c-0.357,0.295-0.539,0.684-0.539,1.168c0,0.485,0.219,0.871,0.656,1.158
				c0.438,0.286,1.449,0.625,3.033,1.014c1.582,0.391,2.811,0.977,3.686,1.754c0.877,0.781,1.314,1.92,1.314,3.416
				s-0.562,2.707-1.684,3.639c-1.123,0.934-2.6,1.396-4.43,1.396c-2.639,0-5.02-0.98-7.137-2.938l2.221-2.721
				c1.799,1.574,3.461,2.363,4.988,2.363c0.684,0,1.223-0.146,1.611-0.441c0.391-0.295,0.586-0.691,0.586-1.191
				c0-0.504-0.209-0.9-0.623-1.195c-0.412-0.293-1.232-0.592-2.457-0.895c-1.941-0.463-3.361-1.062-4.262-1.803
				c-0.9-0.741-1.348-1.902-1.348-3.485s0.568-2.805,1.707-3.663c1.137-0.861,2.557-1.291,4.26-1.291
				c1.113,0,2.229,0.19,3.342,0.573c1.115,0.382,2.084,0.922,2.912,1.624l-1.885,2.719c-1.449-1.097-2.945-1.645-4.488-1.645
				C-208.742,230.42-209.23,230.565-209.588,230.86z"/>
		</g>
	</g>
</g>
<g opacity="0.5">
	<g>
		<path fill="#FFFFFF" d="M-273.135,258.776h-51.481c-4.205,0-7.628-3.422-7.628-7.629v-30.742c0-4.205,3.423-7.629,7.628-7.629
			h51.481c4.205,0,7.629,3.424,7.629,7.629v30.742C-265.506,255.354-268.93,258.776-273.135,258.776z M-324.616,216.756
			c-2.013,0-3.649,1.638-3.649,3.649v30.744c0,2.012,1.638,3.648,3.649,3.648h51.724c2.012,0,3.648-1.639,3.648-3.648v-30.744
			c0-2.014-1.637-3.65-3.648-3.65L-324.616,216.756L-324.616,216.756z"/>
	</g>
	<g>
		<g>
			<path fill="#FFFFFF" d="M-304.735,227.437h3.724v16.684h-3.724v-6.564h-6.636v6.564h-3.725v-16.684h3.725v6.969h6.636V227.437z"
				/>
		</g>
		<g>
			<path fill="#FFFFFF" d="M-284.16,229.618c1.591,1.457,2.387,3.481,2.387,6.074c0,2.596-0.775,4.646-2.328,6.16
				c-1.551,1.512-3.918,2.268-7.101,2.268h-5.705v-16.684h5.896C-288.035,227.437-285.753,228.162-284.16,229.618z
				 M-286.893,239.538c0.914-0.861,1.371-2.109,1.371-3.75c0-1.637-0.457-2.899-1.371-3.781c-0.918-0.884-2.318-1.325-4.213-1.325
				h-2.078v10.144h2.362C-289.117,240.825-287.811,240.396-286.893,239.538z"/>
		</g>
	</g>
</g>
<g>
	<g>
		<path fill="#FFFFFF" d="M-356.299,258.776h-51.481c-4.205,0-7.628-3.422-7.628-7.629v-30.742c0-4.205,3.423-7.629,7.628-7.629
			h51.481c4.205,0,7.629,3.424,7.629,7.629v30.742C-348.67,255.354-352.094,258.776-356.299,258.776z M-407.78,216.756
			c-2.013,0-3.649,1.638-3.649,3.649v30.744c0,2.012,1.638,3.648,3.649,3.648h51.724c2.012,0,3.648-1.639,3.648-3.648v-30.744
			c0-2.014-1.637-3.65-3.648-3.65L-407.78,216.756L-407.78,216.756z"/>
	</g>
	<g>
		<g>
			<path fill="#FFFFFF" d="M-387.899,227.437h3.724v16.684h-3.724v-6.564h-6.636v6.564h-3.725v-16.684h3.725v6.969h6.636V227.437z"
				/>
		</g>
		<g>
			<path fill="#FFFFFF" d="M-367.324,229.618c1.591,1.457,2.387,3.481,2.387,6.074c0,2.596-0.775,4.646-2.328,6.16
				c-1.551,1.512-3.918,2.268-7.101,2.268h-5.705v-16.684h5.896C-371.199,227.437-368.917,228.162-367.324,229.618z
				 M-370.057,239.538c0.914-0.861,1.371-2.109,1.371-3.75c0-1.637-0.457-2.899-1.371-3.781c-0.918-0.884-2.318-1.325-4.213-1.325
				h-2.078v10.144h2.362C-372.281,240.825-370.975,240.396-370.057,239.538z"/>
		</g>
	</g>
</g>
<g>
	<path fill="#FFFFFF" d="M-627.256,249.192l-5.123-5.027l-2.758,2.746l8.465,8.309c0.371,0.365,0.863,0.557,1.363,0.557
		c0.255,0,0.51-0.05,0.752-0.15c0.725-0.303,1.195-1.013,1.195-1.795v-19.094l-3.895,4.326V249.192z"/>
	<path fill="#FFFFFF" d="M-615.583,219.185c-0.78-0.783-2.046-0.785-2.829-0.007l-4.95,4.929v-6.383c0-0.782-0.47-1.491-1.195-1.795
		c-0.719-0.303-1.555-0.143-2.115,0.406l-9.774,9.592h-6.632c-4.117,0-7.467,3.35-7.467,7.468v4.765
		c0,3.533,2.471,6.496,5.772,7.266l-6.287,6.261c-0.783,0.78-0.786,2.046-0.006,2.829c0.391,0.393,0.904,0.588,1.417,0.588
		c0.51,0,1.021-0.193,1.411-0.582l32.648-32.508C-614.806,221.233-614.803,219.967-615.583,219.185z M-643.078,241.733
		c-1.97,0-3.573-1.604-3.573-3.574v-4.765c0-1.972,1.603-3.575,3.573-3.575h7.428c0.509,0,1-0.2,1.363-0.557l7.031-6.9v5.622
		l-13.809,13.749H-643.078z"/>
</g>
<g>
	<g>
		<path fill="#FFFFFF" d="M-718.181,255.776c-0.5,0-0.992-0.191-1.363-0.557l-9.774-9.594h-6.632
			c-4.117,0.002-7.467-3.35-7.467-7.467v-4.765c0-4.118,3.35-7.468,7.467-7.468h6.632l9.774-9.592
			c0.561-0.549,1.396-0.709,2.115-0.406c0.726,0.304,1.195,1.013,1.195,1.795v36.107c0,0.782-0.471,1.492-1.195,1.795
			C-717.671,255.727-717.926,255.776-718.181,255.776z M-735.95,229.819c-1.97,0-3.573,1.604-3.573,3.575v4.765
			c0,1.971,1.603,3.574,3.573,3.574h7.426c0.51,0,1,0.199,1.363,0.557l7.033,6.902v-26.83l-7.031,6.9
			c-0.363,0.356-0.854,0.557-1.363,0.557H-735.95z"/>
	</g>
	<g>
		<path fill="#FFFFFF" d="M-705.479,247.941c-0.531,0-1.062-0.22-1.449-0.646c-0.719-0.799-0.651-2.031,0.148-2.75
			c2.471-2.22,3.887-5.383,3.887-8.68c0-3.343-1.446-6.535-3.973-8.757c-0.806-0.709-0.884-1.938-0.173-2.748
			s1.938-0.886,2.748-0.173c3.362,2.96,5.291,7.217,5.291,11.678c0,4.398-1.888,8.619-5.181,11.578
			C-704.55,247.775-705.017,247.941-705.479,247.941z"/>
	</g>
	<g>
		<path fill="#FFFFFF" d="M-710.868,243.157c-0.615,0-1.223-0.291-1.602-0.836c-0.613-0.883-0.396-2.098,0.488-2.71
			c1.232-0.854,1.969-2.257,1.969-3.746c0-1.528-0.766-2.95-2.047-3.801c-0.896-0.595-1.139-1.802-0.543-2.7
			c0.596-0.895,1.801-1.139,2.699-0.544c2.369,1.574,3.784,4.208,3.784,7.044c0,2.764-1.362,5.359-3.642,6.944
			C-710.099,243.046-710.485,243.157-710.868,243.157z"/>
	</g>
</g>
<g>
	<g>
		<path fill="#FFFFFF" d="M-522.627,258.776h-51.48c-4.205,0-7.629-3.422-7.629-7.629v-30.742c0-4.205,3.424-7.629,7.629-7.629
			h51.48c4.205,0,7.629,3.424,7.629,7.629v30.742C-514.999,255.354-518.422,258.776-522.627,258.776z M-574.108,216.756
			c-2.014,0-3.649,1.638-3.649,3.649v30.744c0,2.012,1.638,3.648,3.649,3.648h51.723c2.012,0,3.648-1.637,3.648-3.648v-30.744
			c0-2.014-1.637-3.65-3.648-3.65L-574.108,216.756L-574.108,216.756z"/>
	</g>
	<g>
		<g>
			<path fill="#FFFFFF" d="M-556.128,240.921c1.83,0,3.326-0.723,4.487-2.172l2.388,2.459c-1.896,2.133-4.126,3.197-6.696,3.197
				s-4.686-0.811-6.348-2.434c-1.663-1.625-2.495-3.672-2.495-6.146s0.849-4.539,2.541-6.194c1.696-1.655,3.769-2.481,6.22-2.481
				c2.735,0,5.028,1.043,6.873,3.127l-2.314,2.625c-1.178-1.463-2.643-2.195-4.393-2.195c-1.399,0-2.598,0.458-3.592,1.374
				c-0.994,0.915-1.492,2.146-1.492,3.698s0.471,2.797,1.408,3.734C-558.602,240.452-557.464,240.921-556.128,240.921z"/>
		</g>
		<g>
			<path fill="#FFFFFF" d="M-538.655,240.921c1.83,0,3.326-0.723,4.486-2.172l2.389,2.459c-1.895,2.133-4.125,3.197-6.695,3.197
				s-4.686-0.811-6.35-2.434c-1.662-1.625-2.494-3.672-2.494-6.146s0.848-4.539,2.541-6.194c1.695-1.655,3.77-2.481,6.219-2.481
				c2.736,0,5.029,1.043,6.875,3.127l-2.316,2.625c-1.176-1.463-2.641-2.195-4.393-2.195c-1.4,0-2.596,0.458-3.592,1.374
				c-0.994,0.915-1.49,2.146-1.49,3.698s0.469,2.797,1.408,3.734C-541.129,240.452-539.991,240.921-538.655,240.921z"/>
		</g>
	</g>
</g>
<g opacity="0.5">
	<g>
		<path fill="#FFFFFF" d="M-439.463,258.776h-51.48c-4.205,0-7.629-3.422-7.629-7.629v-30.742c0-4.205,3.424-7.629,7.629-7.629
			h51.48c4.205,0,7.629,3.424,7.629,7.629v30.742C-431.834,255.354-435.258,258.776-439.463,258.776z M-490.943,216.756
			c-2.014,0-3.649,1.638-3.649,3.649v30.744c0,2.012,1.638,3.648,3.649,3.648h51.723c2.012,0,3.648-1.637,3.648-3.648v-30.744
			c0-2.014-1.637-3.65-3.648-3.65L-490.943,216.756L-490.943,216.756z"/>
	</g>
	<g>
		<g>
			<path fill="#FFFFFF" d="M-472.964,240.921c1.83,0,3.326-0.723,4.487-2.172l2.388,2.459c-1.896,2.133-4.126,3.197-6.696,3.197
				s-4.686-0.811-6.348-2.434c-1.663-1.625-2.495-3.672-2.495-6.146s0.849-4.539,2.541-6.194c1.696-1.655,3.769-2.481,6.22-2.481
				c2.735,0,5.028,1.043,6.873,3.127l-2.314,2.625c-1.178-1.463-2.643-2.195-4.393-2.195c-1.399,0-2.598,0.458-3.592,1.374
				c-0.994,0.915-1.492,2.146-1.492,3.698s0.471,2.797,1.408,3.734C-475.438,240.452-474.3,240.921-472.964,240.921z"/>
		</g>
		<g>
			<path fill="#FFFFFF" d="M-455.49,240.921c1.83,0,3.326-0.723,4.486-2.172l2.389,2.459c-1.895,2.133-4.125,3.197-6.695,3.197
				s-4.686-0.811-6.35-2.434c-1.662-1.625-2.494-3.672-2.494-6.146s0.848-4.539,2.541-6.194c1.695-1.655,3.77-2.481,6.219-2.481
				c2.736,0,5.029,1.043,6.875,3.127l-2.316,2.625c-1.176-1.463-2.641-2.195-4.393-2.195c-1.4,0-2.596,0.458-3.592,1.374
				c-0.994,0.915-1.49,2.146-1.49,3.698s0.469,2.797,1.408,3.734C-457.965,240.452-456.826,240.921-455.49,240.921z"/>
		</g>
	</g>
</g>
<g>
	<g>
		<g>
			<path fill="#FFFFFF" d="M-136.272,227.531v3.269h-7.732v3.606h7.351v3.27h-7.351v6.541h-3.725v-16.686H-136.272z"/>
		</g>
		<g>
			<path fill="#FFFFFF" d="M-128.336,230.86c-0.357,0.295-0.539,0.684-0.539,1.169c0,0.484,0.22,0.87,0.656,1.158
				c0.438,0.285,1.449,0.625,3.033,1.014c1.582,0.39,2.812,0.976,3.687,1.754c0.877,0.78,1.313,1.92,1.313,3.415
				c0,1.496-0.562,2.708-1.683,3.64c-1.123,0.933-2.601,1.396-4.431,1.396c-2.639,0-5.02-0.979-7.137-2.937l2.221-2.721
				c1.8,1.574,3.462,2.363,4.988,2.363c0.685,0,1.223-0.146,1.612-0.441s0.585-0.692,0.585-1.192c0-0.503-0.208-0.9-0.622-1.195
				c-0.413-0.293-1.233-0.592-2.457-0.894c-1.942-0.463-3.362-1.062-4.263-1.804s-1.348-1.902-1.348-3.485s0.568-2.805,1.707-3.663
				c1.137-0.861,2.557-1.29,4.261-1.29c1.112,0,2.228,0.189,3.341,0.572c1.115,0.383,2.084,0.922,2.912,1.624l-1.885,2.72
				c-1.449-1.098-2.944-1.646-4.487-1.646C-127.489,230.42-127.979,230.565-128.336,230.86z"/>
		</g>
	</g>
	<path fill="#FFFFFF" d="M-150.052,220.324c-0.663,0-1.294,0.136-1.876,0.367l-10.816-7.812c-0.895-0.647-2.146-0.444-2.792,0.45
		c-0.647,0.896-0.445,2.146,0.45,2.792l10.286,7.429c-0.235,0.588-0.373,1.225-0.373,1.896v6.415h3.41v-6.414
		c0-0.944,0.768-1.713,1.711-1.713h10.967v-3.409H-150.052z"/>
	<path fill="#FFFFFF" d="M-103.38,213.329c-0.646-0.895-1.896-1.098-2.792-0.45l-10.816,7.812c-0.582-0.231-1.212-0.367-1.876-0.367
		h-10.965v3.409h11.11c0.943,0,1.711,0.768,1.711,1.712v6.415h3.265v-6.415c0-0.671-0.138-1.308-0.373-1.896l10.286-7.429
		C-102.935,215.475-102.732,214.225-103.38,213.329z"/>
	<path fill="#FFFFFF" d="M-150.052,247.821c-0.943,0-1.711-0.769-1.711-1.713v-6.413h-3.41v6.413c0,0.67,0.138,1.307,0.372,1.895
		l-10.286,7.43c-0.896,0.646-1.097,1.896-0.45,2.792c0.391,0.542,1.002,0.829,1.623,0.829c0.405,0,0.815-0.123,1.169-0.379
		l10.815-7.812c0.583,0.231,1.214,0.368,1.878,0.368h10.968v-3.409H-150.052z"/>
	<path fill="#FFFFFF" d="M-103.829,255.433l-10.287-7.43c0.235-0.588,0.373-1.225,0.373-1.895v-6.413h-3.265v6.413
		c0,0.944-0.768,1.713-1.711,1.713h-11.11v3.409h10.965c0.664,0,1.295-0.137,1.878-0.368l10.815,7.812
		c0.354,0.256,0.764,0.379,1.169,0.379c0.621,0,1.232-0.287,1.623-0.829C-102.732,257.329-102.934,256.079-103.829,255.433z"/>
</g>
</svg>
