<?xml version="1.0" encoding="utf-8"?>
<!-- Generator: Adobe Illustrator 16.0.0, SVG Export Plug-In . SVG Version: 6.00 Build 0)  -->
<!DOCTYPE svg PUBLIC "-//W3C//DTD SVG 1.1//EN" "http://www.w3.org/Graphics/SVG/1.1/DTD/svg11.dtd">
<svg version="1.1" id="share" xmlns="http://www.w3.org/2000/svg" xmlns:xlink="http://www.w3.org/1999/xlink" x="0px" y="0px"
	 width="232px" height="232px" viewBox="-0.5 0.5 232 232" enable-background="new -0.5 0.5 232 232" xml:space="preserve">
<g>
	<g opacity="0.2">
		<path fill="#FFFFFF" d="M115.5,8.492c59.555,0,108.008,48.453,108.008,108.01c0,59.553-48.453,108.006-108.008,108.006
			S7.492,176.055,7.492,116.5S55.945,8.492,115.5,8.492 M115.5,0.5c-64.062,0-116,51.936-116,116c0,64.066,51.938,116,116,116
			c64.064,0,116-51.934,116-115.998C231.5,52.436,179.564,0.5,115.5,0.5L115.5,0.5z"/>
	</g>
	<g>
		<g>
			<rect x="146.97" y="53.329" fill="#FFFFFF" width="7.992" height="126.344"/>
		</g>
		<g>
			<rect x="76.039" y="53.329" fill="#FFFFFF" width="7.991" height="126.344"/>
		</g>
	</g>
</g>
</svg>
