<?xml version="1.0" encoding="utf-8"?>
<!-- Generator: Adobe Illustrator 16.0.0, SVG Export Plug-In . SVG Version: 6.00 Build 0)  -->
<!DOCTYPE svg PUBLIC "-//W3C//DTD SVG 1.1//EN" "http://www.w3.org/Graphics/SVG/1.1/DTD/svg11.dtd">
<svg version="1.1" id="share" xmlns="http://www.w3.org/2000/svg" xmlns:xlink="http://www.w3.org/1999/xlink" x="0px" y="0px"
	 width="111.836px" height="51.481px" viewBox="0 0 111.836 51.481" enable-background="new 0 0 111.836 51.481"
	 xml:space="preserve">
<g>
	<g>
		<rect x="16.861" y="13.893" fill="#FFFFFF" width="4" height="23.696"/>
	</g>
	<g>
		<rect x="30.621" y="13.893" fill="#FFFFFF" width="4" height="23.696"/>
	</g>
</g>
<g opacity="0.5">
	<path fill="#FFFFFF" d="M25.741,51.481C11.547,51.481,0,39.935,0,25.74C0,11.547,11.547,0,25.741,0s25.741,11.547,25.741,25.74
		C51.481,39.935,39.934,51.481,25.741,51.481z M25.741,3.736c-12.133,0-22.004,9.871-22.004,22.004
		c0,12.134,9.871,22.005,22.004,22.005s22.004-9.871,22.004-22.005C47.745,13.607,37.874,3.736,25.741,3.736z"/>
</g>
<polygon fill="#FFFFFF" points="92.215,25.74 79.222,38.731 82.267,41.776 98.304,25.741 82.267,9.704 79.223,12.748 "/>
<g opacity="0.5">
	<path fill="#FFFFFF" d="M86.095,51.481c-14.193,0-25.741-11.547-25.741-25.741C60.354,11.547,71.902,0,86.095,0
		s25.741,11.547,25.741,25.74C111.836,39.935,100.289,51.481,86.095,51.481z M86.095,3.736c-12.133,0-22.004,9.871-22.004,22.004
		c0,12.134,9.871,22.005,22.004,22.005S108.1,37.874,108.1,25.74C108.1,13.607,98.229,3.736,86.095,3.736z"/>
</g>
</svg>
