<?xml version="1.0" encoding="utf-8"?>
<!-- Generator: Adobe Illustrator 16.0.0, SVG Export Plug-In . SVG Version: 6.00 Build 0)  -->
<!DOCTYPE svg PUBLIC "-//W3C//DTD SVG 1.1//EN" "http://www.w3.org/Graphics/SVG/1.1/DTD/svg11.dtd">
<svg version="1.1" id="share" xmlns="http://www.w3.org/2000/svg" xmlns:xlink="http://www.w3.org/1999/xlink" x="0px" y="0px"
	 width="232px" height="232px" viewBox="-0.5 0.5 232 232" enable-background="new -0.5 0.5 232 232" xml:space="preserve">
<g>
	<g opacity="0.2">
		<path fill="#FFFFFF" d="M115.5,8.492c59.555,0,108.008,48.453,108.008,108.008S175.055,224.508,115.5,224.508
			S7.492,176.055,7.492,116.5S55.945,8.492,115.5,8.492 M115.5,0.5c-64.062,0-116,51.934-116,116s51.938,116,116,116
			c64.064,0,116-51.934,116-116S179.564,0.5,115.5,0.5L115.5,0.5z"/>
	</g>
	<g>
		<polygon fill="#FFFFFF" points="92.78,184.242 87.051,178.67 147.5,116.5 87.051,54.328 92.78,48.758 158.649,116.5 		"/>
	</g>
</g>
</svg>
